<?xml version="1.0" encoding="UTF-8" standalone="no"?>
<!-- Created with Inkscape (http://www.inkscape.org/) -->

<svg
   xmlns:ns0="http://www.iki.fi/pav/software/textext/"
   xmlns:dc="http://purl.org/dc/elements/1.1/"
   xmlns:cc="http://creativecommons.org/ns#"
   xmlns:rdf="http://www.w3.org/1999/02/22-rdf-syntax-ns#"
   xmlns:svg="http://www.w3.org/2000/svg"
   xmlns="http://www.w3.org/2000/svg"
   xmlns:sodipodi="http://sodipodi.sourceforge.net/DTD/sodipodi-0.dtd"
   xmlns:inkscape="http://www.inkscape.org/namespaces/inkscape"
   width="744.09448819"
   height="1052.3622047"
   id="svg2"
   version="1.1"
   inkscape:version="0.48.4 r9939"
   sodipodi:docname="coordinateframes.svg">
  <sodipodi:namedview
     id="base"
     pagecolor="#ffffff"
     bordercolor="#666666"
     borderopacity="1.0"
     inkscape:pageopacity="0.0"
     inkscape:pageshadow="2"
     inkscape:zoom="2.8"
     inkscape:cx="339.44418"
     inkscape:cy="809.87985"
     inkscape:document-units="px"
     inkscape:current-layer="layer1"
     showgrid="false"
     inkscape:window-width="1637"
     inkscape:window-height="1026"
     inkscape:window-x="43"
     inkscape:window-y="24"
     inkscape:window-maximized="1" />
  <defs
     id="defs4">
    <marker
       style="overflow:visible"
       id="DotM"
       refX="0.0"
       refY="0.0"
       orient="auto"
       inkscape:stockid="DotM">
      <path
         transform="scale(0.4) translate(7.4, 1)"
         style="fill-rule:evenodd;stroke:#000000;stroke-width:1.0pt"
         d="M -2.5,-1.0 C -2.5,1.7600000 -4.7400000,4.0 -7.5,4.0 C -10.260000,4.0 -12.5,1.7600000 -12.5,-1.0 C -12.5,-3.7600000 -10.260000,-6.0 -7.5,-6.0 C -4.7400000,-6.0 -2.5,-3.7600000 -2.5,-1.0 z "
         id="path3825" />
    </marker>
    <marker
       inkscape:stockid="Arrow1Mstart"
       orient="auto"
       refY="0.0"
       refX="0.0"
       id="Arrow1Mstart"
       style="overflow:visible">
      <path
         id="path3767"
         d="M 0.0,0.0 L 5.0,-5.0 L -12.5,0.0 L 5.0,5.0 L 0.0,0.0 z "
         style="fill-rule:evenodd;stroke:#000000;stroke-width:1.0pt"
         transform="scale(0.4) translate(10,0)" />
    </marker>
    <marker
       inkscape:stockid="Arrow1Mend"
       orient="auto"
       refY="0.0"
       refX="0.0"
       id="Arrow1Mend"
       style="overflow:visible;">
      <path
         id="path3770"
         d="M 0.0,0.0 L 5.0,-5.0 L -12.5,0.0 L 5.0,5.0 L 0.0,0.0 z "
         style="fill-rule:evenodd;stroke:#000000;stroke-width:1.0pt;"
         transform="scale(0.4) rotate(180) translate(10,0)" />
    </marker>
    <marker
       inkscape:stockid="Arrow1Mend"
       orient="auto"
       refY="0"
       refX="0"
       id="Arrow1Mend-7"
       style="overflow:visible">
      <path
         inkscape:connector-curvature="0"
         id="path3770-2"
         d="M 0,0 5,-5 -12.5,0 5,5 0,0 z"
         style="fill-rule:evenodd;stroke:#000000;stroke-width:1pt"
         transform="matrix(-0.4,0,0,-0.4,-4,0)" />
    </marker>
    <marker
       inkscape:stockid="Arrow1Mend"
       orient="auto"
       refY="0"
       refX="0"
       id="Arrow1Mend-75"
       style="overflow:visible">
      <path
         inkscape:connector-curvature="0"
         id="path3770-5"
         d="M 0,0 5,-5 -12.5,0 5,5 0,0 z"
         style="fill-rule:evenodd;stroke:#000000;stroke-width:1pt"
         transform="matrix(-0.4,0,0,-0.4,-4,0)" />
    </marker>
    <marker
       inkscape:stockid="Arrow1Mend"
       orient="auto"
       refY="0"
       refX="0"
       id="marker4237"
       style="overflow:visible">
      <path
         inkscape:connector-curvature="0"
         id="path4239"
         d="M 0,0 5,-5 -12.5,0 5,5 0,0 z"
         style="fill-rule:evenodd;stroke:#000000;stroke-width:1pt"
         transform="matrix(-0.4,0,0,-0.4,-4,0)" />
    </marker>
    <marker
       inkscape:stockid="Arrow1MendQ"
       orient="auto"
       refY="0.0"
       refX="0.0"
       id="Arrow1MendQ"
       style="overflow:visible;">
      <path
         id="path5139"
         d="M 0.0,0.0 L 5.0,-5.0 L -12.5,0.0 L 5.0,5.0 L 0.0,0.0 z "
         style="stroke:#000000;stroke-width:1.0pt;fill:#000000;fill-rule:evenodd"
         transform="scale(0.4) rotate(180) translate(10,0)" />
    </marker>
    <marker
       inkscape:stockid="Arrow1MendQW"
       orient="auto"
       refY="0.0"
       refX="0.0"
       id="Arrow1MendQW"
       style="overflow:visible;">
      <path
         id="path5218"
         d="M 0.0,0.0 L 5.0,-5.0 L -12.5,0.0 L 5.0,5.0 L 0.0,0.0 z "
         style="fill-rule:evenodd;stroke:#0000c2;stroke-width:1.0pt;fill:#0000c2"
         transform="scale(0.4) rotate(180) translate(10,0)" />
    </marker>
    <marker
       inkscape:stockid="Arrow1Mendd"
       orient="auto"
       refY="0.0"
       refX="0.0"
       id="Arrow1Mendd"
       style="overflow:visible;">
      <path
         id="path5301"
         d="M 0.0,0.0 L 5.0,-5.0 L -12.5,0.0 L 5.0,5.0 L 0.0,0.0 z "
         style="stroke:#0000c2;stroke-width:1.0pt;fill:#0000c2;fill-rule:evenodd"
         transform="scale(0.4) rotate(180) translate(10,0)" />
    </marker>
  </defs>
  <metadata
     id="metadata7">
    <rdf:RDF>
      <cc:Work
         rdf:about="">
        <dc:format>image/svg+xml</dc:format>
        <dc:type
           rdf:resource="http://purl.org/dc/dcmitype/StillImage" />
        <dc:title />
      </cc:Work>
    </rdf:RDF>
  </metadata>
  <g
     inkscape:label="Layer 1"
     inkscape:groupmode="layer"
     id="layer1">
    <path
       sodipodi:type="arc"
       style="fill:none;stroke:#000000;stroke-width:2;stroke-linecap:butt;stroke-linejoin:miter;stroke-opacity:1;stroke-miterlimit:4;stroke-dasharray:none"
       id="path2985"
       sodipodi:cx="311.07144"
       sodipodi:cy="311.29074"
       sodipodi:rx="78.214287"
       sodipodi:ry="78.214287"
       d="m 389.28573,311.29074 a 78.214287,78.214287 0 1 1 -156.42858,0 78.214287,78.214287 0 1 1 156.42858,0 z"
       transform="translate(-40.857149,-30.714286)" />
    <path
       style="fill:none;stroke:#000000;stroke-width:2;stroke-linecap:butt;stroke-linejoin:miter;stroke-miterlimit:4;stroke-opacity:1;stroke-dasharray:none;marker-end:url(#Arrow1Mend)"
       d="m 266.75,280.57645 178.57143,0"
       id="path3755"
       inkscape:connector-curvature="0" />
    <path
       style="fill:none;stroke:#000000;stroke-width:2;stroke-linecap:butt;stroke-linejoin:miter;stroke-miterlimit:4;stroke-opacity:1;stroke-dasharray:none;marker-end:url(#Arrow1Mend)"
       d="m 270.25,284.07645 0,-178.57143"
       id="path3755-2"
       inkscape:connector-curvature="0" />
    <path
       style="stroke-linejoin:miter;marker-end:url(#Arrow1MendQW);stroke-opacity:1;stroke:#0000c2;stroke-linecap:butt;stroke-miterlimit:4;stroke-dasharray:none;stroke-width:1;fill:none"
       d="M 266.89364,282.51103 413.17079,180.08667"
       id="path3755-8"
       inkscape:connector-curvature="0" />
    <path
       style="stroke-linejoin:miter;marker-end:url(#Arrow1Mendd);stroke-opacity:1;stroke:#0000c2;stroke-linecap:butt;stroke-miterlimit:4;stroke-dasharray:none;stroke-width:1;fill:none"
       d="M 271.76819,283.37055 169.34383,137.0934"
       id="path3755-2-8"
       inkscape:connector-curvature="0" />
    <path
       sodipodi:type="arc"
       style="fill:#000000;stroke:#000000;stroke-width:1;stroke-miterlimit:4;stroke-opacity:1;stroke-dasharray:none;fill-opacity:1"
       id="path4266"
       sodipodi:cx="143.75"
       sodipodi:cy="261.46933"
       sodipodi:rx="5.1785712"
       sodipodi:ry="5.1785712"
       d="m 148.92857,261.46933 a 5.1785712,5.1785712 0 1 1 -10.35714,0 5.1785712,5.1785712 0 1 1 10.35714,0 z"
       transform="matrix(0.81546314,0,0,0.81546314,153.12041,67.137197)" />
    <path
       sodipodi:type="arc"
       style="fill:none;stroke:#000000;stroke-width:0.6;stroke-miterlimit:4;stroke-opacity:1;stroke-dasharray:none;marker-start:url(#Arrow1Mstart)"
       id="path4272"
       sodipodi:cx="273.57144"
       sodipodi:cy="274.50504"
       sodipodi:rx="18.928572"
       sodipodi:ry="18.928572"
       d="m 289.07682,263.64805 a 18.928572,18.928572 0 0 1 3.42319,10.85699"
       sodipodi:start="5.6723201"
       sodipodi:end="6.2831853"
       sodipodi:open="true"
       transform="translate(-0.29926502,5.030638)" />
    <g
       style="font-style:normal;font-variant:normal;font-weight:normal;font-stretch:normal;letter-spacing:normal;word-spacing:normal;text-anchor:start;fill:none;stroke:#000000;stroke-linecap:butt;stroke-linejoin:miter;stroke-miterlimit:10.43299961;stroke-opacity:1;stroke-dasharray:none;stroke-dashoffset:0"
       id="content"
       transform="matrix(1.3072596,0,0,-1.3072596,3.3949709,1199.615)"
       xml:space="preserve"
       stroke-miterlimit="10.433"
       font-style="normal"
       font-variant="normal"
       font-weight="normal"
       font-stretch="normal"
       font-size-adjust="none"
       letter-spacing="normal"
       word-spacing="normal"
       ns0:text="$\\theta_u$"
       ns0:preamble=""><path
         style="fill:#000000;stroke-width:0"
         inkscape:connector-curvature="0"
         d="m 227.96,712.09 0,0.07 0,0.06 -0.01,0.07 0,0.08 -0.01,0.07 0,0.08 -0.01,0.08 -0.01,0.09 -0.02,0.08 -0.01,0.08 -0.02,0.09 -0.02,0.08 -0.02,0.09 -0.03,0.08 -0.03,0.08 -0.03,0.09 -0.03,0.07 -0.04,0.08 -0.04,0.08 -0.04,0.07 -0.05,0.06 -0.05,0.07 -0.05,0.06 -0.06,0.05 -0.06,0.05 -0.03,0.02 -0.04,0.03 -0.03,0.02 -0.04,0.01 -0.03,0.02 -0.04,0.02 -0.04,0.01 -0.04,0.01 -0.04,0.01 -0.04,0.01 -0.05,0.01 -0.04,0 -0.05,0.01 -0.05,0 0,-0.22 c 0.48,0 0.54,-0.64 0.54,-1.2 0,-0.49 -0.08,-1 -0.32,-1.98 h -2.08 c 0.17,0.64 0.37,1.43 0.77,2.14 0.27,0.48 0.64,1.04 1.09,1.04 l 0,0.22 c -1.38,0 -2.91,-2.8 -2.91,-5.08 0,-0.93 0.29,-2.03 1.19,-2.03 v 0.21 c -0.33,0 -0.53,0.29 -0.53,1.22 0,0.41 0.06,0.99 0.31,1.96 h 2.07 c -0.1,-0.45 -0.31,-1.3 -0.69,-2.01 -0.35,-0.68 -0.73,-1.17 -1.16,-1.17 v -0.21 c 1.41,0 2.92,2.85 2.92,5.07 z"
         id="path4678" /><path
         style="fill:#000000;stroke-width:0"
         inkscape:connector-curvature="0"
         d="m 231.05,706.76 0,-0.02 0,-0.01 -0.01,-0.01 0,-0.02 0,-0.02 -0.01,-0.01 -0.01,-0.03 0,-0.04 -0.01,-0.03 -0.01,-0.04 0,-0.01 -0.01,-0.02 0,-0.01 -0.01,-0.02 0,-0.01 0,-0.02 -0.01,-0.01 0,-0.01 0,-0.01 -0.01,-0.02 0,-0.01 0,0 -0.01,-0.01 0,-0.01 0,0 0,0 0,-0.01 0,0 0,0 0,0 -0.01,0 0,0 c -0.13,-0.22 -0.41,-0.59 -0.84,-0.59 -0.48,0 -0.48,0.45 -0.48,0.57 0,0.41 0.2,0.91 0.39,1.41 0.06,0.14 0.1,0.25 0.1,0.36 0,0.36 -0.31,0.6 -0.66,0.6 -0.7,0 -1.01,-0.96 -1.01,-1.07 0,-0.09 0.09,-0.09 0.11,-0.09 0.1,0 0.11,0.04 0.13,0.11 0.17,0.57 0.47,0.85 0.75,0.85 0.11,0 0.17,-0.07 0.17,-0.24 0,-0.16 -0.06,-0.31 -0.13,-0.47 -0.37,-0.96 -0.37,-1.16 -0.37,-1.34 0,-0.12 0,-0.44 0.26,-0.67 0.2,-0.16 0.47,-0.22 0.71,-0.22 0.44,0 0.68,0.24 0.91,0.46 0.15,-0.44 0.62,-0.46 0.7,-0.46 0.24,0 0.42,0.14 0.55,0.37 0.15,0.27 0.25,0.67 0.25,0.69 0,0.1 -0.1,0.1 -0.12,0.1 -0.09,0 -0.1,-0.03 -0.15,-0.22 -0.08,-0.33 -0.22,-0.74 -0.51,-0.74 -0.18,0 -0.23,0.16 -0.23,0.34 0,0.12 0.06,0.37 0.11,0.55 0.05,0.18 0.12,0.47 0.15,0.62 l 0.16,0.62 c 0.04,0.18 0.12,0.48 0.12,0.52 0,0.13 -0.11,0.22 -0.23,0.22 -0.26,0 -0.31,-0.2 -0.36,-0.43 z"
         id="path4680" /></g>    <g
       style="font-style:normal;font-variant:normal;font-weight:normal;font-stretch:normal;letter-spacing:normal;word-spacing:normal;text-anchor:start;fill:none;stroke:#000000;stroke-linecap:butt;stroke-linejoin:miter;stroke-miterlimit:10.43299961;stroke-opacity:1;stroke-dasharray:none;stroke-dashoffset:0"
       ns0:preamble=""
       ns0:text="$O$"
       word-spacing="normal"
       letter-spacing="normal"
       font-size-adjust="none"
       font-stretch="normal"
       font-weight="normal"
       font-variant="normal"
       font-style="normal"
       stroke-miterlimit="10.433"
       xml:space="preserve"
       transform="matrix(1.3072596,0,0,-1.3072596,-34.342314,1220.3139)"
       id="g4756"><path
         id="path4758"
         d="m 230.79,711.46 0,0.14 -0.01,0.15 -0.01,0.14 -0.02,0.14 -0.03,0.13 -0.03,0.14 -0.04,0.12 -0.04,0.13 -0.05,0.12 -0.06,0.11 -0.05,0.12 -0.07,0.1 -0.07,0.11 -0.07,0.1 -0.08,0.09 -0.08,0.09 -0.08,0.09 -0.1,0.08 -0.09,0.07 -0.1,0.07 -0.1,0.07 -0.11,0.06 -0.11,0.06 -0.11,0.05 -0.12,0.04 -0.12,0.04 -0.12,0.03 -0.13,0.03 -0.13,0.02 -0.13,0.02 -0.14,0 -0.13,0.01 -0.06,-0.25 c 0.81,0 1.71,-0.56 1.71,-2.04 0,-0.71 -0.27,-2.26 -1.26,-3.48 -0.47,-0.61 -1.29,-1.2 -2.12,-1.2 h 0 c -0.99,0 -1.68,0.81 -1.68,2.12 0,0.44 0.13,1.89 0.9,3.05 0.69,1.03 1.66,1.55 2.45,1.55 l 0.06,0.25 c -2.15,0 -4.34,-2.26 -4.34,-4.57 0,-1.65 1.11,-2.65 2.55,-2.65 2.11,0 4.32,2.17 4.32,4.55 z"
         inkscape:connector-curvature="0"
         style="fill:#000000;stroke-width:0" /></g>    <g
       id="g4973"
       transform="matrix(1.3072596,0,0,-1.3072596,147.78032,1220.2608)"
       xml:space="preserve"
       stroke="black"
       stroke-linecap="butt"
       stroke-linejoin="miter"
       stroke-miterlimit="10.433"
       stroke-dasharray="none"
       stroke-dashoffset="0"
       stroke-opacity="1"
       fill="none"
       fill-rule="evenodd"
       fill-opacity="1"
       font-style="normal"
       font-variant="normal"
       font-weight="normal"
       font-stretch="normal"
       font-size-adjust="none"
       letter-spacing="normal"
       word-spacing="normal"
       text-anchor="start"
       ns0:text="${\\vec{e}_{1}}^{\\,0}$"
       ns0:preamble=""
       style="font-style:normal;font-variant:normal;font-weight:normal;font-stretch:normal;letter-spacing:normal;word-spacing:normal;text-anchor:start;fill:none;stroke:#000000;stroke-linecap:butt;stroke-linejoin:miter;stroke-miterlimit:10.43299961;stroke-opacity:1;stroke-dasharray:none;stroke-dashoffset:0"><path
         d="M228.39,713.04 L228.38,713.02 L228.36,713.01 L228.35,713 L228.33,712.98 L228.31,712.97 L228.3,712.95 L228.28,712.93 L228.26,712.92 L228.24,712.9 L228.22,712.88 L228.18,712.84 L228.14,712.8 L228.1,712.76 L228.09,712.74 L228.07,712.72 L228.05,712.7 L228.03,712.68 L228.02,712.66 L228,712.64 L227.99,712.62 L227.98,712.6 L227.96,712.58 L227.95,712.56 L227.95,712.54 L227.94,712.52 L227.93,712.5 L227.93,712.48 L227.92,712.47 L227.92,712.45 C227.92,712.35,228.02,712.25,228.12,712.25 C228.21,712.25,228.26,712.32,228.31,712.38 C228.43,712.53,228.66,712.81,229.1,713.03 C229.17,713.07,229.27,713.11,229.27,713.23 C229.27,713.33,229.2,713.38,229.13,713.43 C228.91,713.58,228.8,713.76,228.72,714 C228.7,714.09,228.66,714.22,228.52,714.22 C228.38,714.22,228.32,714.09,228.32,714.01 C228.32,713.96,228.4,713.64,228.56,713.43 H225.21 C225.04,713.43,224.86,713.43,224.86,713.23 C224.86,713.04,225.04,713.04,225.21,713.04 Z "
         stroke-width="0"
         fill="black"
         id="path4975" /><path
         d="M225.3,709.42 L225.33,709.42 L225.36,709.42 L225.39,709.42 L225.42,709.42 L225.46,709.42 L225.5,709.42 L225.54,709.42 L225.59,709.43 L225.63,709.43 L225.68,709.43 L225.73,709.43 L225.77,709.44 L225.82,709.44 L225.88,709.45 L225.98,709.46 L226.09,709.47 L226.2,709.48 L226.3,709.5 L226.41,709.52 L226.52,709.55 L226.57,709.56 L226.62,709.58 L226.67,709.59 L226.72,709.61 L226.77,709.63 L226.82,709.65 C227.52,709.95,227.57,710.53,227.57,710.67 C227.57,711.11,227.19,711.52,226.5,711.52 V711.3 C226.97,711.3,227.24,711.01,227.24,710.67 C227.24,709.64,225.65,709.64,225.24,709.64 H224.83 C225.22,711.15,226.24,711.3,226.5,711.3 V711.52 C225.4,711.52,223.89,710.55,223.89,708.81 C223.89,707.8,224.48,707.02,225.46,707.02 C226.88,707.02,227.71,708.07,227.71,708.19 C227.71,708.25,227.65,708.32,227.6,708.32 C227.55,708.32,227.53,708.3,227.47,708.22 C226.68,707.23,225.6,707.23,225.48,707.23 C224.7,707.23,224.61,708.07,224.61,708.39 C224.61,708.51,224.62,708.81,224.77,709.42 Z "
         stroke-width="0"
         fill="black"
         id="path4977" /><path
         d="M233.03,712.96 L233.02,713.1 L233.02,713.24 L233.02,713.37 L233.01,713.49 L233,713.62 L232.98,713.74 L232.96,713.85 L232.94,713.96 L232.92,714.07 L232.89,714.18 L232.85,714.28 L232.81,714.38 L232.77,714.48 L232.72,714.57 L232.67,714.67 L232.64,714.71 L232.62,714.76 C232.4,715.08,231.97,715.36,231.41,715.36 V715.16 C231.79,715.16,232.15,714.93,232.27,714.53 C232.38,714.15,232.39,713.65,232.39,713.05 C232.39,712.53,232.39,712.02,232.3,711.58 C232.16,710.95,231.69,710.8,231.41,710.8 H231.41 C231.09,710.8,230.66,710.98,230.52,711.55 C230.43,711.96,230.43,712.53,230.43,713.05 C230.43,713.56,230.43,714.09,230.53,714.47 C230.68,715.02,231.12,715.16,231.41,715.16 V715.36 C229.79,715.36,229.79,713.46,229.79,712.96 C229.79,712.46,229.79,710.6,231.41,710.6 C233.03,710.6,233.03,712.46,233.03,712.96 Z "
         stroke-width="0"
         fill="black"
         id="path4979" /><path
         d="M230.4,709.08 L230.4,709.08 L230.4,709.09 L230.4,709.1 L230.4,709.11 L230.4,709.12 L230.4,709.12 L230.4,709.13 L230.4,709.14 L230.4,709.14 L230.4,709.15 L230.4,709.16 L230.4,709.16 L230.4,709.17 L230.4,709.17 L230.4,709.18 L230.4,709.18 L230.4,709.19 L230.4,709.19 L230.39,709.2 L230.39,709.21 L230.39,709.22 L230.39,709.23 L230.38,709.23 L230.38,709.24 L230.37,709.24 L230.37,709.25 L230.36,709.25 L230.35,709.25 L230.35,709.26 L230.34,709.26 L230.33,709.26 L230.32,709.26 L230.32,709.26 L230.31,709.26 L230.3,709.27 L230.3,709.27 L230.29,709.27 L230.29,709.27 L230.28,709.27 L230.27,709.27 L230.27,709.27 L230.26,709.27 L230.25,709.27 L230.25,709.27 L230.24,709.27 L230.23,709.27 L230.22,709.27 L230.21,709.27 L230.2,709.27 L230.2,709.27 C229.75,708.83,229.12,708.82,228.83,708.82 V708.57 C229,708.57,229.46,708.57,229.84,708.77 V705.22 C229.84,704.99,229.84,704.9,229.14,704.9 H228.88 V704.65 C229,704.66,229.86,704.68,230.12,704.68 C230.34,704.68,231.21,704.66,231.37,704.65 V704.9 H231.1 C230.4,704.9,230.4,704.99,230.4,705.22 Z "
         stroke-width="0"
         fill="black"
         id="path4981" /></g>    <g
       style="font-style:normal;font-variant:normal;font-weight:normal;font-stretch:normal;letter-spacing:normal;word-spacing:normal;text-anchor:start;fill:none;stroke:#000000;stroke-linecap:butt;stroke-linejoin:miter;stroke-miterlimit:10.43299961;stroke-opacity:1;stroke-dasharray:none;stroke-dashoffset:0"
       ns0:preamble=""
       ns0:text="${\\vec{e}_{2}}^{\\,0}$"
       text-anchor="start"
       word-spacing="normal"
       letter-spacing="normal"
       font-size-adjust="none"
       font-stretch="normal"
       font-weight="normal"
       font-variant="normal"
       font-style="normal"
       fill-opacity="1"
       fill-rule="evenodd"
       fill="none"
       stroke-opacity="1"
       stroke-dashoffset="0"
       stroke-dasharray="none"
       stroke-miterlimit="10.433"
       stroke-linejoin="miter"
       stroke-linecap="butt"
       stroke="black"
       xml:space="preserve"
       transform="matrix(1.3072596,0,0,-1.3072596,-41.156528,1035.5231)"
       id="g5077"><path
         id="path5079"
         fill="black"
         stroke-width="0"
         d="M228.39,713.04 L228.38,713.02 L228.36,713.01 L228.35,713 L228.33,712.98 L228.31,712.97 L228.3,712.95 L228.28,712.93 L228.26,712.92 L228.24,712.9 L228.22,712.88 L228.18,712.84 L228.14,712.8 L228.1,712.76 L228.09,712.74 L228.07,712.72 L228.05,712.7 L228.03,712.68 L228.02,712.66 L228,712.64 L227.99,712.62 L227.98,712.6 L227.96,712.58 L227.95,712.56 L227.95,712.54 L227.94,712.52 L227.93,712.5 L227.93,712.48 L227.92,712.47 L227.92,712.45 C227.92,712.35,228.02,712.25,228.12,712.25 C228.21,712.25,228.26,712.32,228.31,712.38 C228.43,712.53,228.66,712.81,229.1,713.03 C229.17,713.07,229.27,713.11,229.27,713.23 C229.27,713.33,229.2,713.38,229.13,713.43 C228.91,713.58,228.8,713.76,228.72,714 C228.7,714.09,228.66,714.22,228.52,714.22 C228.38,714.22,228.32,714.09,228.32,714.01 C228.32,713.96,228.4,713.64,228.56,713.43 H225.21 C225.04,713.43,224.86,713.43,224.86,713.23 C224.86,713.04,225.04,713.04,225.21,713.04 Z " /><path
         id="path5081"
         fill="black"
         stroke-width="0"
         d="M225.3,709.42 L225.33,709.42 L225.36,709.42 L225.39,709.42 L225.42,709.42 L225.46,709.42 L225.5,709.42 L225.54,709.42 L225.59,709.43 L225.63,709.43 L225.68,709.43 L225.73,709.43 L225.77,709.44 L225.82,709.44 L225.88,709.45 L225.98,709.46 L226.09,709.47 L226.2,709.48 L226.3,709.5 L226.41,709.52 L226.52,709.55 L226.57,709.56 L226.62,709.58 L226.67,709.59 L226.72,709.61 L226.77,709.63 L226.82,709.65 C227.52,709.95,227.57,710.53,227.57,710.67 C227.57,711.11,227.19,711.52,226.5,711.52 V711.3 C226.97,711.3,227.24,711.01,227.24,710.67 C227.24,709.64,225.65,709.64,225.24,709.64 H224.83 C225.22,711.15,226.24,711.3,226.5,711.3 V711.52 C225.4,711.52,223.89,710.55,223.89,708.81 C223.89,707.8,224.48,707.02,225.46,707.02 C226.88,707.02,227.71,708.07,227.71,708.19 C227.71,708.25,227.65,708.32,227.6,708.32 C227.55,708.32,227.53,708.3,227.47,708.22 C226.68,707.23,225.6,707.23,225.48,707.23 C224.7,707.23,224.61,708.07,224.61,708.39 C224.61,708.51,224.62,708.81,224.77,709.42 Z " /><path
         id="path5083"
         fill="black"
         stroke-width="0"
         d="M233.03,712.96 L233.02,713.1 L233.02,713.24 L233.02,713.37 L233.01,713.49 L233,713.62 L232.98,713.74 L232.96,713.85 L232.94,713.96 L232.92,714.07 L232.89,714.18 L232.85,714.28 L232.81,714.38 L232.77,714.48 L232.72,714.57 L232.67,714.67 L232.64,714.71 L232.62,714.76 C232.4,715.08,231.97,715.36,231.41,715.36 V715.16 C231.79,715.16,232.15,714.93,232.27,714.53 C232.38,714.15,232.39,713.65,232.39,713.05 C232.39,712.53,232.39,712.02,232.3,711.58 C232.16,710.95,231.69,710.8,231.41,710.8 H231.41 C231.09,710.8,230.66,710.98,230.52,711.55 C230.43,711.96,230.43,712.53,230.43,713.05 C230.43,713.56,230.43,714.09,230.53,714.47 C230.68,715.02,231.12,715.16,231.41,715.16 V715.36 C229.79,715.36,229.79,713.46,229.79,712.96 C229.79,712.46,229.79,710.6,231.41,710.6 C233.03,710.6,233.03,712.46,233.03,712.96 Z " /><path
         id="path5085"
         fill="black"
         stroke-width="0"
         d="M231.59,705.92 H231.35 C231.33,705.77,231.26,705.35,231.17,705.28 C231.12,705.24,230.58,705.24,230.48,705.24 H229.2 C229.93,705.89,230.17,706.08,230.59,706.41 C231.11,706.82,231.59,707.25,231.59,707.91 C231.59,708.76,230.85,709.27,229.96,709.27 C229.1,709.27,228.51,708.66,228.51,708.03 C228.51,707.67,228.81,707.64,228.88,707.64 C229.05,707.64,229.25,707.75,229.25,708 C229.25,708.13,229.2,708.37,228.84,708.37 C229.05,708.87,229.53,709.02,229.85,709.02 C230.55,709.02,230.91,708.48,230.91,707.91 C230.91,707.31,230.48,706.83,230.26,706.58 L228.58,704.92 C228.51,704.86,228.51,704.85,228.51,704.65 H231.38 Z " /></g>    <path
       inkscape:connector-curvature="0"
       id="path5652"
       d="m 294.29023,322.30797 49.90243,28.46865"
       style="fill:none;stroke:#000000;stroke-width:1.13127828px;stroke-linecap:butt;stroke-linejoin:miter;stroke-opacity:1;marker-start:url(#DotM);marker-end:url(#marker4237)" />
    <text
       sodipodi:linespacing="125%"
       id="text6052"
       y="357.88232"
       x="362.64474"
       style="font-size:40px;font-style:normal;font-weight:normal;line-height:125%;letter-spacing:0px;word-spacing:0px;fill:#000000;fill-opacity:1;stroke:none;font-family:Sans"
       xml:space="preserve"><tspan
         y="357.88232"
         x="362.64474"
         id="tspan6054"
         sodipodi:role="line" /></text>
    <g
       style="font-style:normal;font-variant:normal;font-weight:normal;font-stretch:normal;letter-spacing:normal;word-spacing:normal;text-anchor:start;fill:none;stroke:#000000;stroke-linecap:butt;stroke-linejoin:miter;stroke-miterlimit:10.43299961;stroke-opacity:1;stroke-dasharray:none;stroke-dashoffset:0"
       ns0:preamble=""
       ns0:text="upper disc"
       word-spacing="normal"
       letter-spacing="normal"
       font-size-adjust="none"
       font-stretch="normal"
       font-weight="normal"
       font-variant="normal"
       font-style="normal"
       stroke-miterlimit="10.433"
       xml:space="preserve"
       transform="matrix(1.3072596,0,0,-1.3072596,54.896863,1282.0026)"
       id="g6144"><path
         id="path6146"
         d="m 227.32,707.91 v -0.89 l 1.44,0.1 v 0.31 c -0.7,0 -0.78,0.07 -0.78,0.56 v 3.53 l -1.46,-0.11 v -0.31 c 0.69,0 0.77,-0.07 0.77,-0.56 v -1.77 c 0,-0.86 -0.47,-1.54 -1.2,-1.54 -0.84,0 -0.88,0.47 -0.88,0.99 v 3.3 l -1.46,-0.11 v -0.31 c 0.78,0 0.78,-0.03 0.78,-0.92 v -1.49 c 0,-0.77 0,-1.67 1.51,-1.67 0.56,0 0.99,0.27 1.28,0.89 z"
         inkscape:connector-curvature="0"
         style="fill:#000000;stroke-width:0" /><path
         id="path6148"
         d="m 230.68,710.86 v 0.66 l -1.43,-0.11 v -0.31 c 0.7,0 0.77,-0.06 0.77,-0.5 v -4.65 c 0,-0.44 -0.11,-0.44 -0.77,-0.44 v -0.31 c 0.33,0.01 0.85,0.03 1.11,0.03 0.27,0 0.78,-0.02 1.12,-0.03 v 0.31 c -0.66,0 -0.77,0 -0.77,0.44 v 1.67 0.09 l 0.14,0.13 c -0.14,0.21 -0.14,0.22 -0.14,0.42 h 0 v 2.21 c 0.29,0.51 0.77,0.8 1.28,0.8 0.73,0 1.33,-0.88 1.33,-2 0,-1.2 -0.69,-2.04 -1.43,-2.04 -0.4,0 -0.77,0.2 -1.04,0.61 l -0.14,-0.13 c 0.05,-0.16 0.47,-0.69 1.22,-0.69 1.19,0 2.22,0.97 2.22,2.25 0,1.26 -0.96,2.25 -2.08,2.25 -0.78,0 -1.19,-0.44 -1.39,-0.66 z"
         inkscape:connector-curvature="0"
         style="fill:#000000;stroke-width:0" /><path
         id="path6150"
         d="m 236.21,710.86 v 0.66 l -1.43,-0.11 v -0.31 c 0.71,0 0.78,-0.06 0.78,-0.5 v -4.65 c 0,-0.44 -0.11,-0.44 -0.78,-0.44 v -0.31 c 0.34,0.01 0.86,0.03 1.12,0.03 0.26,0 0.77,-0.02 1.12,-0.03 v 0.31 c -0.67,0 -0.78,0 -0.78,0.44 v 1.67 0.09 l 0.14,0.13 c -0.14,0.21 -0.14,0.22 -0.14,0.42 h 0 v 2.21 c 0.29,0.51 0.78,0.8 1.29,0.8 0.72,0 1.33,-0.88 1.33,-2 0,-1.2 -0.7,-2.04 -1.43,-2.04 -0.4,0 -0.78,0.2 -1.05,0.61 l -0.14,-0.13 c 0.05,-0.16 0.47,-0.69 1.23,-0.69 1.18,0 2.22,0.97 2.22,2.25 0,1.26 -0.97,2.25 -2.08,2.25 -0.78,0 -1.2,-0.44 -1.4,-0.66 z"
         inkscape:connector-curvature="0"
         style="fill:#000000;stroke-width:0" /><path
         id="path6152"
         d="m 241.42,709.42 0.01,0.21 c 0.06,1.48 0.9,1.73 1.23,1.73 1.03,0 1.13,-1.34 1.13,-1.73 h -2.36 l -0.01,-0.21 h 2.78 c 0.22,0 0.25,0 0.25,0.21 0,0.98 -0.54,1.95 -1.79,1.95 -1.15,0 -2.06,-1.03 -2.06,-2.27 0,-1.33 1.04,-2.29 2.18,-2.29 1.22,0 1.67,1.1 1.67,1.29 0,0.1 -0.08,0.12 -0.13,0.12 -0.09,0 -0.11,-0.06 -0.13,-0.14 -0.35,-1.03 -1.25,-1.03 -1.35,-1.03 -0.49,0 -0.89,0.3 -1.12,0.67 -0.3,0.48 -0.3,1.13 -0.3,1.49 z"
         inkscape:connector-curvature="0"
         style="fill:#000000;stroke-width:0" /><path
         id="path6154"
         d="m 246.4,710.42 v 1.1 l -1.38,-0.11 v -0.31 c 0.7,0 0.78,-0.07 0.78,-0.56 v -2.66 c 0,-0.45 -0.11,-0.45 -0.78,-0.45 v -0.31 c 0.39,0.02 0.86,0.04 1.14,0.04 0.39,0 0.86,0 1.26,-0.04 v 0.31 h -0.21 c -0.73,0 -0.75,0.11 -0.75,0.47 v 1.53 c 0,0.98 0.41,1.87 1.17,1.87 0.07,0 0.09,0 0.11,-0.01 -0.03,-0.01 -0.23,-0.13 -0.23,-0.39 0,-0.28 0.21,-0.43 0.43,-0.43 0.18,0 0.43,0.12 0.43,0.44 0,0.32 -0.31,0.61 -0.74,0.61 -0.73,0 -1.09,-0.67 -1.23,-1.1 z"
         inkscape:connector-curvature="0"
         style="fill:#000000;stroke-width:0" /><path
         id="path6156"
         d="m 255.74,707.67 v -0.65 l 1.47,0.1 v 0.31 c -0.7,0 -0.78,0.07 -0.78,0.56 v 6.03 L 255,713.91 v -0.31 c 0.7,0 0.77,-0.07 0.77,-0.55 v -2.15 c -0.28,0.36 -0.71,0.62 -1.25,0.62 l 0.04,-0.22 c 0.35,0 0.77,-0.15 1.07,-0.6 0.11,-0.17 0.11,-0.19 0.11,-0.37 h 0 v -2.03 c 0,-0.18 0,-0.2 -0.11,-0.37 -0.29,-0.48 -0.74,-0.7 -1.17,-0.7 -0.45,0 -0.81,0.26 -1.04,0.64 -0.26,0.41 -0.29,0.97 -0.29,1.38 0,0.37 0.02,0.96 0.31,1.41 0.21,0.31 0.58,0.64 1.12,0.64 l -0.04,0.22 c -1.17,0 -2.22,-0.98 -2.22,-2.26 0,-1.26 0.98,-2.24 2.11,-2.24 0.64,0 1.09,0.33 1.33,0.65 z"
         inkscape:connector-curvature="0"
         style="fill:#000000;stroke-width:0" /><path
         id="path6158"
         d="m 259.26,711.52 -1.39,-0.11 v -0.31 c 0.64,0 0.73,-0.06 0.73,-0.55 v -2.67 c 0,-0.45 -0.11,-0.45 -0.77,-0.45 v -0.31 c 0.32,0.02 0.85,0.04 1.09,0.04 0.35,0 0.7,-0.02 1.04,-0.04 v 0.31 c -0.66,0 -0.7,0.05 -0.7,0.44 z"
         inkscape:connector-curvature="0"
         style="fill:#000000;stroke-width:0" /><path
         id="path6160"
         d="m 259.3,713.24 0,0.03 0,0.03 -0.01,0.03 0,0.03 -0.01,0.02 0,0.03 -0.01,0.03 -0.01,0.02 -0.01,0.02 -0.02,0.03 -0.01,0.02 -0.01,0.02 -0.02,0.02 -0.01,0.02 -0.02,0.02 -0.02,0.02 -0.02,0.01 -0.02,0.02 -0.02,0.01 -0.02,0.02 -0.02,0.01 -0.02,0.01 -0.02,0.01 -0.03,0.01 -0.02,0.01 -0.03,0.01 -0.02,0.01 -0.02,0 -0.03,0.01 -0.03,0 -0.02,0 -0.03,0 c -0.31,0 -0.53,-0.27 -0.53,-0.53 0,-0.26 0.22,-0.52 0.53,-0.52 0.28,0 0.53,0.21 0.53,0.52 z"
         inkscape:connector-curvature="0"
         style="fill:#000000;stroke-width:0" /><path
         id="path6162"
         d="m 262.34,709.05 0.02,0 0.02,-0.01 0.03,0 0.03,-0.01 0.04,-0.01 0.03,-0.01 0.04,-0.01 0.04,-0.01 0.04,-0.01 0.04,-0.01 0.05,-0.02 0.04,-0.02 0.04,-0.01 0.05,-0.03 0.04,-0.02 0.05,-0.02 0.04,-0.03 0.04,-0.03 0.04,-0.03 0.04,-0.03 0.04,-0.03 0.04,-0.04 0.03,-0.04 0.03,-0.04 0.03,-0.05 0.01,-0.02 0.01,-0.03 0.02,-0.02 0.01,-0.03 0.01,-0.02 0.01,-0.03 0,-0.03 0.01,-0.02 0.01,-0.03 0,-0.03 0.01,-0.03 0,-0.04 0,-0.03 0,-0.03 c 0,-0.51 -0.35,-0.91 -1.12,-0.91 -0.84,0 -1.2,0.57 -1.39,1.42 -0.03,0.12 -0.04,0.16 -0.14,0.16 -0.12,0 -0.12,-0.07 -0.12,-0.24 v -1.32 c 0,-0.16 0,-0.23 0.1,-0.23 0.05,0 0.06,0.01 0.25,0.19 0.02,0.02 0.02,0.04 0.2,0.23 0.44,-0.41 0.89,-0.42 1.1,-0.42 1.14,0 1.6,0.66 1.6,1.38 0,0.52 -0.3,0.82 -0.42,0.94 -0.33,0.32 -0.72,0.4 -1.13,0.48 -0.56,0.11 -1.23,0.23 -1.23,0.81 0,0.35 0.26,0.76 1.12,0.76 1.09,0 1.14,-0.9 1.16,-1.21 0.01,-0.09 0.1,-0.09 0.12,-0.09 0.13,0 0.13,0.06 0.13,0.24 v 1.01 c 0,0.17 0,0.24 -0.11,0.24 -0.05,0 -0.07,0 -0.2,-0.12 -0.03,-0.04 -0.13,-0.13 -0.17,-0.16 -0.38,0.28 -0.78,0.28 -0.93,0.28 -1.22,0 -1.59,-0.67 -1.59,-1.23 0,-0.34 0.15,-0.62 0.42,-0.84 0.32,-0.26 0.6,-0.32 1.32,-0.46 z"
         inkscape:connector-curvature="0"
         style="fill:#000000;stroke-width:0" /><path
         id="path6164"
         d="m 265.36,709.29 0,0.08 0,0.07 0.01,0.07 0,0.07 0,0.07 0.01,0.07 0.01,0.06 0.01,0.06 0.01,0.06 0.01,0.06 0.01,0.06 0.01,0.06 0.03,0.11 0.03,0.1 0.03,0.1 0.04,0.09 0.03,0.09 0.05,0.08 0.04,0.07 0.05,0.07 0.04,0.07 0.05,0.06 0.06,0.05 0.05,0.05 0.05,0.05 0.06,0.04 0.05,0.04 0.06,0.03 0.05,0.03 0.06,0.03 0.06,0.02 0.05,0.02 0.06,0.01 0.05,0.02 0.06,0.01 0.05,0 0.05,0.01 0.05,0 c 0.09,0 0.72,-0.01 1.07,-0.37 -0.41,-0.03 -0.47,-0.33 -0.47,-0.46 0,-0.26 0.18,-0.45 0.46,-0.45 0.26,0 0.45,0.16 0.45,0.46 0,0.68 -0.75,1.07 -1.52,1.07 -1.24,0 -2.16,-1.08 -2.16,-2.31 0,-1.27 0.99,-2.25 2.14,-2.25 1.34,0 1.66,1.19 1.66,1.29 0,0.1 -0.1,0.1 -0.13,0.1 -0.09,0 -0.11,-0.04 -0.13,-0.1 -0.29,-0.93 -0.94,-1.05 -1.31,-1.05 -0.53,0 -1.4,0.43 -1.4,2.03 z"
         inkscape:connector-curvature="0"
         style="fill:#000000;stroke-width:0" /></g>    <g
       id="g6297"
       transform="matrix(1.3072596,0,0,-1.3072596,120.98633,1117.6659)"
       xml:space="preserve"
       stroke="black"
       stroke-linecap="butt"
       stroke-linejoin="miter"
       stroke-miterlimit="10.433"
       stroke-dasharray="none"
       stroke-dashoffset="0"
       stroke-opacity="1"
       fill="none"
       fill-rule="evenodd"
       fill-opacity="1"
       font-style="normal"
       font-variant="normal"
       font-weight="normal"
       font-stretch="normal"
       font-size-adjust="none"
       letter-spacing="normal"
       word-spacing="normal"
       text-anchor="start"
       ns0:text="${\\vec{e}_{1}}$"
       ns0:preamble=""
       style="font-style:normal;font-variant:normal;font-weight:normal;font-stretch:normal;letter-spacing:normal;word-spacing:normal;text-anchor:start;fill:#0000c2;stroke:#0000c2;stroke-linecap:butt;stroke-linejoin:miter;stroke-miterlimit:10.43299960999999954;stroke-opacity:1;stroke-dasharray:none;stroke-dashoffset:0;fill-opacity:1"><path
         d="M228.39,713.04 L228.38,713.02 L228.36,713.01 L228.35,713 L228.33,712.98 L228.31,712.97 L228.3,712.95 L228.28,712.93 L228.26,712.92 L228.24,712.9 L228.22,712.88 L228.18,712.84 L228.14,712.8 L228.1,712.76 L228.09,712.74 L228.07,712.72 L228.05,712.7 L228.03,712.68 L228.02,712.66 L228,712.64 L227.99,712.62 L227.98,712.6 L227.96,712.58 L227.95,712.56 L227.95,712.54 L227.94,712.52 L227.93,712.5 L227.93,712.48 L227.92,712.47 L227.92,712.45 C227.92,712.35,228.02,712.25,228.12,712.25 C228.21,712.25,228.26,712.32,228.31,712.38 C228.43,712.53,228.66,712.81,229.1,713.03 C229.17,713.07,229.27,713.11,229.27,713.23 C229.27,713.33,229.2,713.38,229.13,713.43 C228.91,713.58,228.8,713.76,228.72,714 C228.7,714.09,228.66,714.22,228.52,714.22 C228.38,714.22,228.32,714.09,228.32,714.01 C228.32,713.96,228.4,713.64,228.56,713.43 H225.21 C225.04,713.43,224.86,713.43,224.86,713.23 C224.86,713.04,225.04,713.04,225.21,713.04 Z "
         stroke-width="0"
         fill="black"
         id="path6299" /><path
         d="M225.3,709.42 L225.33,709.42 L225.36,709.42 L225.39,709.42 L225.42,709.42 L225.46,709.42 L225.5,709.42 L225.54,709.42 L225.59,709.43 L225.63,709.43 L225.68,709.43 L225.73,709.43 L225.77,709.44 L225.82,709.44 L225.88,709.45 L225.98,709.46 L226.09,709.47 L226.2,709.48 L226.3,709.5 L226.41,709.52 L226.52,709.55 L226.57,709.56 L226.62,709.58 L226.67,709.59 L226.72,709.61 L226.77,709.63 L226.82,709.65 C227.52,709.95,227.57,710.53,227.57,710.67 C227.57,711.11,227.19,711.52,226.5,711.52 V711.3 C226.97,711.3,227.24,711.01,227.24,710.67 C227.24,709.64,225.65,709.64,225.24,709.64 H224.83 C225.22,711.15,226.24,711.3,226.5,711.3 V711.52 C225.4,711.52,223.89,710.55,223.89,708.81 C223.89,707.8,224.48,707.02,225.46,707.02 C226.88,707.02,227.71,708.07,227.71,708.19 C227.71,708.25,227.65,708.32,227.6,708.32 C227.55,708.32,227.53,708.3,227.47,708.22 C226.68,707.23,225.6,707.23,225.48,707.23 C224.7,707.23,224.61,708.07,224.61,708.39 C224.61,708.51,224.62,708.81,224.77,709.42 Z "
         stroke-width="0"
         fill="black"
         id="path6301" /><path
         d="M230.4,710.05 L230.4,710.06 L230.4,710.07 L230.4,710.08 L230.4,710.09 L230.4,710.09 L230.4,710.1 L230.4,710.11 L230.4,710.12 L230.4,710.12 L230.4,710.13 L230.4,710.14 L230.4,710.14 L230.4,710.15 L230.4,710.15 L230.4,710.16 L230.4,710.16 L230.4,710.17 L230.4,710.17 L230.39,710.18 L230.39,710.19 L230.39,710.2 L230.39,710.2 L230.38,710.21 L230.38,710.22 L230.37,710.22 L230.37,710.23 L230.36,710.23 L230.35,710.23 L230.35,710.24 L230.34,710.24 L230.33,710.24 L230.32,710.24 L230.32,710.24 L230.31,710.24 L230.3,710.24 L230.3,710.25 L230.29,710.25 L230.29,710.25 L230.28,710.25 L230.27,710.25 L230.27,710.25 L230.26,710.25 L230.25,710.25 L230.25,710.25 L230.24,710.25 L230.23,710.25 L230.22,710.25 L230.21,710.25 L230.2,710.25 L230.2,710.25 C229.75,709.81,229.12,709.8,228.83,709.8 V709.55 C229,709.55,229.46,709.55,229.84,709.75 V706.2 C229.84,705.97,229.84,705.88,229.14,705.88 H228.88 V705.63 C229,705.64,229.86,705.66,230.12,705.66 C230.33,705.66,231.21,705.64,231.37,705.63 V705.88 H231.1 C230.4,705.88,230.4,705.97,230.4,706.2 Z "
         stroke-width="0"
         fill="black"
         id="path6303" /></g>    <g
       style="font-style:normal;font-variant:normal;font-weight:normal;font-stretch:normal;letter-spacing:normal;word-spacing:normal;text-anchor:start;fill:#0000c2;stroke:#000000;stroke-linecap:butt;stroke-linejoin:miter;stroke-miterlimit:10.43299960999999954;stroke-opacity:1;stroke-dasharray:none;stroke-dashoffset:0;fill-opacity:1"
       ns0:preamble=""
       ns0:text="${\\vec{e}_{2}}$"
       text-anchor="start"
       word-spacing="normal"
       letter-spacing="normal"
       font-size-adjust="none"
       font-stretch="normal"
       font-weight="normal"
       font-variant="normal"
       font-style="normal"
       fill-opacity="1"
       fill-rule="evenodd"
       fill="none"
       stroke-opacity="1"
       stroke-dashoffset="0"
       stroke-dasharray="none"
       stroke-miterlimit="10.433"
       stroke-linejoin="miter"
       stroke-linecap="butt"
       stroke="black"
       xml:space="preserve"
       transform="matrix(1.3072596,0,0,-1.3072596,-120.0851,1058.3802)"
       id="g6434"><path
         id="path6436"
         fill="black"
         stroke-width="0"
         d="M228.39,713.04 L228.38,713.02 L228.36,713.01 L228.35,713 L228.33,712.98 L228.31,712.97 L228.3,712.95 L228.28,712.93 L228.26,712.92 L228.24,712.9 L228.22,712.88 L228.18,712.84 L228.14,712.8 L228.1,712.76 L228.09,712.74 L228.07,712.72 L228.05,712.7 L228.03,712.68 L228.02,712.66 L228,712.64 L227.99,712.62 L227.98,712.6 L227.96,712.58 L227.95,712.56 L227.95,712.54 L227.94,712.52 L227.93,712.5 L227.93,712.48 L227.92,712.47 L227.92,712.45 C227.92,712.35,228.02,712.25,228.12,712.25 C228.21,712.25,228.26,712.32,228.31,712.38 C228.43,712.53,228.66,712.81,229.1,713.03 C229.17,713.07,229.27,713.11,229.27,713.23 C229.27,713.33,229.2,713.38,229.13,713.43 C228.91,713.58,228.8,713.76,228.72,714 C228.7,714.09,228.66,714.22,228.52,714.22 C228.38,714.22,228.32,714.09,228.32,714.01 C228.32,713.96,228.4,713.64,228.56,713.43 H225.21 C225.04,713.43,224.86,713.43,224.86,713.23 C224.86,713.04,225.04,713.04,225.21,713.04 Z " /><path
         id="path6438"
         fill="black"
         stroke-width="0"
         d="M225.3,709.42 L225.33,709.42 L225.36,709.42 L225.39,709.42 L225.42,709.42 L225.46,709.42 L225.5,709.42 L225.54,709.42 L225.59,709.43 L225.63,709.43 L225.68,709.43 L225.73,709.43 L225.77,709.44 L225.82,709.44 L225.88,709.45 L225.98,709.46 L226.09,709.47 L226.2,709.48 L226.3,709.5 L226.41,709.52 L226.52,709.55 L226.57,709.56 L226.62,709.58 L226.67,709.59 L226.72,709.61 L226.77,709.63 L226.82,709.65 C227.52,709.95,227.57,710.53,227.57,710.67 C227.57,711.11,227.19,711.52,226.5,711.52 V711.3 C226.97,711.3,227.24,711.01,227.24,710.67 C227.24,709.64,225.65,709.64,225.24,709.64 H224.83 C225.22,711.15,226.24,711.3,226.5,711.3 V711.52 C225.4,711.52,223.89,710.55,223.89,708.81 C223.89,707.8,224.48,707.02,225.46,707.02 C226.88,707.02,227.71,708.07,227.71,708.19 C227.71,708.25,227.65,708.32,227.6,708.32 C227.55,708.32,227.53,708.3,227.47,708.22 C226.68,707.23,225.6,707.23,225.48,707.23 C224.7,707.23,224.61,708.07,224.61,708.39 C224.61,708.51,224.62,708.81,224.77,709.42 Z " /><path
         id="path6440"
         fill="black"
         stroke-width="0"
         d="M231.59,706.9 H231.35 C231.33,706.74,231.26,706.33,231.17,706.26 C231.11,706.22,230.58,706.22,230.48,706.22 H229.2 C229.93,706.87,230.17,707.06,230.59,707.39 C231.11,707.8,231.59,708.23,231.59,708.89 C231.59,709.73,230.85,710.25,229.96,710.25 C229.1,710.25,228.51,709.64,228.51,709 C228.51,708.65,228.81,708.61,228.88,708.61 C229.05,708.61,229.25,708.73,229.25,708.98 C229.25,709.11,229.2,709.35,228.84,709.35 C229.05,709.84,229.53,710,229.85,710 C230.55,710,230.91,709.46,230.91,708.89 C230.91,708.29,230.48,707.81,230.26,707.56 L228.58,705.9 C228.51,705.84,228.51,705.83,228.51,705.63 H231.38 Z " /></g>  </g>
</svg>
